<svg width="40" height="40" viewBox="0 0 40 40" fill="none" xmlns="http://www.w3.org/2000/svg">
<path fill-rule="evenodd" clip-rule="evenodd" d="M26.6667 25C28.8433 25 30.6967 26.3917 31.3833 28.3333H33.3333C33.7754 28.3333 34.1993 28.5089 34.5118 28.8215C34.8244 29.134 35 29.558 35 30C35 30.442 34.8244 30.866 34.5118 31.1785C34.1993 31.4911 33.7754 31.6667 33.3333 31.6667H31.3833C31.039 32.6426 30.4004 33.4876 29.5557 34.0854C28.7109 34.6831 27.7015 35.0041 26.6667 35.0041C25.6318 35.0041 24.6224 34.6831 23.7777 34.0854C22.9329 33.4876 22.2943 32.6426 21.95 31.6667H6.66667C6.22464 31.6667 5.80072 31.4911 5.48816 31.1785C5.17559 30.866 5 30.442 5 30C5 29.558 5.17559 29.134 5.48816 28.8215C5.80072 28.5089 6.22464 28.3333 6.66667 28.3333H21.95C22.2948 27.3581 22.9336 26.5138 23.7784 25.9168C24.6231 25.3198 25.6322 24.9995 26.6667 25ZM26.6667 28.3333C26.2246 28.3333 25.8007 28.5089 25.4882 28.8215C25.1756 29.134 25 29.558 25 30C25 30.442 25.1756 30.866 25.4882 31.1785C25.8007 31.4911 26.2246 31.6667 26.6667 31.6667C27.1087 31.6667 27.5326 31.4911 27.8452 31.1785C28.1577 30.866 28.3333 30.442 28.3333 30C28.3333 29.558 28.1577 29.134 27.8452 28.8215C27.5326 28.5089 27.1087 28.3333 26.6667 28.3333ZM13.3333 15C14.315 14.9999 15.275 15.2887 16.0936 15.8305C16.9122 16.3723 17.5532 17.143 17.9367 18.0467L18.0483 18.3333H33.3333C33.7581 18.3338 34.1667 18.4965 34.4756 18.7881C34.7845 19.0797 34.9704 19.4783 34.9953 19.9023C35.0202 20.3264 34.8822 20.744 34.6096 21.0697C34.3369 21.3955 33.9502 21.6048 33.5283 21.655L33.3333 21.6667H18.05C17.714 22.6171 17.0986 23.4439 16.2846 24.0385C15.4705 24.6332 14.4957 24.9679 13.4881 24.9989C12.4804 25.0299 11.487 24.7557 10.6379 24.2122C9.78881 23.6687 9.12378 22.8814 8.73 21.9533L8.61667 21.6667H6.66667C6.24187 21.6662 5.83328 21.5035 5.52439 21.2119C5.21549 20.9203 5.02961 20.5217 5.00471 20.0977C4.97982 19.6736 5.11779 19.256 5.39044 18.9303C5.66309 18.6045 6.04984 18.3952 6.47167 18.345L6.66667 18.3333H8.61667C8.96147 17.3581 9.60027 16.5138 10.445 15.9168C11.2898 15.3198 12.2989 14.9995 13.3333 15ZM13.3333 18.3333C12.8913 18.3333 12.4674 18.5089 12.1548 18.8215C11.8423 19.1341 11.6667 19.558 11.6667 20C11.6667 20.442 11.8423 20.866 12.1548 21.1785C12.4674 21.4911 12.8913 21.6667 13.3333 21.6667C13.7754 21.6667 14.1993 21.4911 14.5118 21.1785C14.8244 20.866 15 20.442 15 20C15 19.558 14.8244 19.1341 14.5118 18.8215C14.1993 18.5089 13.7754 18.3333 13.3333 18.3333ZM26.6667 5C28.8433 5 30.6967 6.39167 31.3833 8.33333H33.3333C33.7754 8.33333 34.1993 8.50893 34.5118 8.82149C34.8244 9.13405 35 9.55797 35 10C35 10.442 34.8244 10.866 34.5118 11.1785C34.1993 11.4911 33.7754 11.6667 33.3333 11.6667H31.3833C31.039 12.6426 30.4004 13.4876 29.5557 14.0854C28.7109 14.6831 27.7015 15.0041 26.6667 15.0041C25.6318 15.0041 24.6224 14.6831 23.7777 14.0854C22.9329 13.4876 22.2943 12.6426 21.95 11.6667H6.66667C6.22464 11.6667 5.80072 11.4911 5.48816 11.1785C5.17559 10.866 5 10.442 5 10C5 9.55797 5.17559 9.13405 5.48816 8.82149C5.80072 8.50893 6.22464 8.33333 6.66667 8.33333H21.95C22.2948 7.35807 22.9336 6.51376 23.7784 5.91676C24.6231 5.31976 25.6322 4.99946 26.6667 5ZM26.6667 8.33333C26.2246 8.33333 25.8007 8.50893 25.4882 8.82149C25.1756 9.13405 25 9.55797 25 10C25 10.442 25.1756 10.866 25.4882 11.1785C25.8007 11.4911 26.2246 11.6667 26.6667 11.6667C27.1087 11.6667 27.5326 11.4911 27.8452 11.1785C28.1577 10.866 28.3333 10.442 28.3333 10C28.3333 9.55797 28.1577 9.13405 27.8452 8.82149C27.5326 8.50893 27.1087 8.33333 26.6667 8.33333Z" fill="white"/>
</svg>
