<svg width="24" height="24" viewBox="0 0 24 24" fill="none" xmlns="http://www.w3.org/2000/svg">
<path d="M11.9999 5.00055C13.6987 5.00055 15.5004 6.4315 15.5004 7.49955V9.99959C15.5004 10.9618 15.1002 12.8028 14.0269 13.648C13.8923 13.7539 13.7872 13.8927 13.7216 14.0509C13.6559 14.2091 13.6321 14.3816 13.6522 14.5517C13.6932 14.8981 13.9116 15.1975 14.2283 15.3431L18.582 17.4077C18.616 17.4232 18.9992 17.4875 18.9992 18.0227L18.9997 18.9992L5.0005 19V17.9847C5.0005 17.587 5.29891 17.4622 5.41822 17.4072L9.81147 15.3338C10.1266 15.1893 10.344 14.8911 10.3863 14.5472C10.4288 14.2033 10.29 13.8618 10.0196 13.645C8.98031 12.8105 8.49606 10.9764 8.49606 9.99959V7.49955C8.49629 6.45453 10.316 5.00055 11.9999 5.00055ZM11.9999 4C9.79073 4 7.49556 5.84373 7.49556 7.49957V9.9996C7.49556 11.0919 7.99406 13.3021 9.39329 14.4251L4.99977 16.4987C4.99977 16.4987 4 16.9442 4 17.4987V19C4 19.5525 4.44773 20 4.99975 20H19C19.5525 20 20 19.5525 20 19V17.4987C20 16.9109 19 16.4987 19 16.4987L14.6462 14.4341C16.0322 13.3433 16.5012 11.2005 16.5012 9.99959V7.49955C16.5012 5.8437 14.2088 4.00002 11.9999 4.00002V4Z" fill="#333333"/>
</svg>
